G04 #@! TF.FileFunction,Soldermask,Top*
%FSLAX46Y46*%
G04 Gerber Fmt 4.6, Leading zero omitted, Abs format (unit mm)*
G04 Created by KiCad (PCBNEW 4.0.2-stable) date 6/15/2017 1:23:54 PM*
%MOMM*%
G01*
G04 APERTURE LIST*
%ADD10C,0.100000*%
%ADD11O,0.640000X1.000000*%
%ADD12R,3.250000X1.980000*%
%ADD13R,0.975000X0.600000*%
%ADD14R,1.600000X1.200000*%
%ADD15R,1.200000X1.600000*%
%ADD16R,0.800000X1.750000*%
%ADD17O,1.650000X1.350000*%
%ADD18O,1.400000X1.950000*%
%ADD19R,4.900000X2.200000*%
%ADD20C,1.900000*%
%ADD21C,3.400000*%
%ADD22R,2.599640X1.924000*%
%ADD23O,2.599640X1.924000*%
G04 APERTURE END LIST*
D10*
D11*
X149876300Y-87074100D03*
X150376300Y-87074100D03*
X150876300Y-87074100D03*
X151376300Y-87074100D03*
X151876300Y-87074100D03*
X152376300Y-87074100D03*
X152876300Y-87074100D03*
X152876300Y-84274100D03*
X152376300Y-84274100D03*
X151876300Y-84274100D03*
X151376300Y-84274100D03*
X150876300Y-84274100D03*
X150376300Y-84274100D03*
X149876300Y-84274100D03*
D12*
X151376300Y-85674100D03*
D13*
X149663800Y-84984100D03*
X149663800Y-86364100D03*
X149663800Y-85904100D03*
X149663800Y-85444100D03*
X153088800Y-85444100D03*
X153088800Y-84984100D03*
X153088800Y-85904100D03*
X153088800Y-86364100D03*
D14*
X159613600Y-90641600D03*
X159613600Y-92441600D03*
X157378400Y-90641600D03*
X157378400Y-92441600D03*
D15*
X147831300Y-90754100D03*
X146031300Y-90754100D03*
X154417600Y-90830400D03*
X152617600Y-90830400D03*
D14*
X146296300Y-84774100D03*
X146296300Y-86574100D03*
D15*
X150476300Y-78054100D03*
X152276300Y-78054100D03*
X150476300Y-80594100D03*
X152276300Y-80594100D03*
D16*
X155719300Y-74070200D03*
X155069300Y-74070200D03*
X154419300Y-74070200D03*
X153769300Y-74070200D03*
X153119300Y-74070200D03*
D17*
X156919300Y-74070200D03*
X151919300Y-74070200D03*
D18*
X157919300Y-71370200D03*
X150919300Y-71370200D03*
D19*
X158597600Y-83389200D03*
X158597600Y-86689200D03*
D20*
X132894800Y-81483200D03*
X135434800Y-81483200D03*
X137464800Y-81483200D03*
X140004800Y-81483200D03*
D21*
X129844800Y-78813200D03*
X143564800Y-78813200D03*
D22*
X164084000Y-79197200D03*
D23*
X164084000Y-81737200D03*
X164084000Y-84277200D03*
X164084000Y-86817200D03*
X164084000Y-89357200D03*
X164084000Y-91897200D03*
X164084000Y-94437200D03*
D22*
X126187200Y-78994000D03*
D23*
X126187200Y-81534000D03*
X126187200Y-84074000D03*
X126187200Y-86614000D03*
X126187200Y-89154000D03*
X126187200Y-91694000D03*
X126187200Y-94234000D03*
X126187200Y-96774000D03*
X126187200Y-99314000D03*
X126187200Y-101854000D03*
X126187200Y-104394000D03*
X126187200Y-106934000D03*
M02*
