G04 #@! TF.FileFunction,Copper,L1,Top,Signal*
%FSLAX46Y46*%
G04 Gerber Fmt 4.6, Leading zero omitted, Abs format (unit mm)*
G04 Created by KiCad (PCBNEW 4.0.2-stable) date 6/15/2017 1:23:54 PM*
%MOMM*%
G01*
G04 APERTURE LIST*
%ADD10C,0.100000*%
%ADD11O,0.240000X0.600000*%
%ADD12R,2.850000X1.580000*%
%ADD13R,0.575000X0.200000*%
%ADD14R,1.200000X0.800000*%
%ADD15R,0.800000X1.200000*%
%ADD16R,0.400000X1.350000*%
%ADD17O,1.250000X0.950000*%
%ADD18O,1.000000X1.550000*%
%ADD19R,4.500000X1.800000*%
%ADD20C,1.500000*%
%ADD21C,3.000000*%
%ADD22R,2.199640X1.524000*%
%ADD23O,2.199640X1.524000*%
%ADD24C,0.600000*%
%ADD25C,0.250000*%
%ADD26C,0.403000*%
%ADD27C,0.203200*%
%ADD28C,0.406400*%
%ADD29C,0.254000*%
G04 APERTURE END LIST*
D10*
D11*
X149876300Y-87074100D03*
X150376300Y-87074100D03*
X150876300Y-87074100D03*
X151376300Y-87074100D03*
X151876300Y-87074100D03*
X152376300Y-87074100D03*
X152876300Y-87074100D03*
X152876300Y-84274100D03*
X152376300Y-84274100D03*
X151876300Y-84274100D03*
X151376300Y-84274100D03*
X150876300Y-84274100D03*
X150376300Y-84274100D03*
X149876300Y-84274100D03*
D12*
X151376300Y-85674100D03*
D13*
X149663800Y-84984100D03*
X149663800Y-86364100D03*
X149663800Y-85904100D03*
X149663800Y-85444100D03*
X153088800Y-85444100D03*
X153088800Y-84984100D03*
X153088800Y-85904100D03*
X153088800Y-86364100D03*
D14*
X159613600Y-90641600D03*
X159613600Y-92441600D03*
X157378400Y-90641600D03*
X157378400Y-92441600D03*
D15*
X147831300Y-90754100D03*
X146031300Y-90754100D03*
X154417600Y-90830400D03*
X152617600Y-90830400D03*
D14*
X146296300Y-84774100D03*
X146296300Y-86574100D03*
D15*
X150476300Y-78054100D03*
X152276300Y-78054100D03*
X150476300Y-80594100D03*
X152276300Y-80594100D03*
D16*
X155719300Y-74070200D03*
X155069300Y-74070200D03*
X154419300Y-74070200D03*
X153769300Y-74070200D03*
X153119300Y-74070200D03*
D17*
X156919300Y-74070200D03*
X151919300Y-74070200D03*
D18*
X157919300Y-71370200D03*
X150919300Y-71370200D03*
D19*
X158597600Y-83389200D03*
X158597600Y-86689200D03*
D20*
X132894800Y-81483200D03*
X135434800Y-81483200D03*
X137464800Y-81483200D03*
X140004800Y-81483200D03*
D21*
X129844800Y-78813200D03*
X143564800Y-78813200D03*
D22*
X164084000Y-79197200D03*
D23*
X164084000Y-81737200D03*
X164084000Y-84277200D03*
X164084000Y-86817200D03*
X164084000Y-89357200D03*
X164084000Y-91897200D03*
X164084000Y-94437200D03*
D22*
X126187200Y-78994000D03*
D23*
X126187200Y-81534000D03*
X126187200Y-84074000D03*
X126187200Y-86614000D03*
X126187200Y-89154000D03*
X126187200Y-91694000D03*
X126187200Y-94234000D03*
X126187200Y-96774000D03*
X126187200Y-99314000D03*
X126187200Y-101854000D03*
X126187200Y-104394000D03*
X126187200Y-106934000D03*
D24*
X152603200Y-76657200D03*
X154228800Y-85904100D03*
X147370800Y-88798400D03*
X150876300Y-82507100D03*
D25*
X153088800Y-86364100D02*
X152066300Y-86364100D01*
X152066300Y-86364100D02*
X151376300Y-85674100D01*
X153088800Y-85904100D02*
X151606300Y-85904100D01*
X151606300Y-85904100D02*
X151376300Y-85674100D01*
X153088800Y-85444100D02*
X151606300Y-85444100D01*
X151606300Y-85444100D02*
X151376300Y-85674100D01*
X153088800Y-84984100D02*
X152066300Y-84984100D01*
X152066300Y-84984100D02*
X151376300Y-85674100D01*
X162585400Y-94437200D02*
X162585400Y-95377000D01*
D26*
X163372800Y-95605600D02*
X164134800Y-94843600D01*
D25*
X162814000Y-95605600D02*
X163372800Y-95605600D01*
X162585400Y-95377000D02*
X162814000Y-95605600D01*
X162585400Y-92887800D02*
X162585400Y-94437200D01*
D26*
X162560000Y-94437200D02*
X164134800Y-94437200D01*
D25*
X162585400Y-94437200D02*
X162560000Y-94437200D01*
X159613600Y-92441600D02*
X162139200Y-92441600D01*
X162139200Y-92441600D02*
X162585400Y-92887800D01*
X157378400Y-92441600D02*
X159613600Y-92441600D01*
X146031300Y-90754100D02*
X146031300Y-92881100D01*
X155360800Y-92441600D02*
X157378400Y-92441600D01*
X154889200Y-92913200D02*
X155360800Y-92441600D01*
X146063400Y-92913200D02*
X154889200Y-92913200D01*
X146031300Y-92881100D02*
X146063400Y-92913200D01*
X146507200Y-89560400D02*
X146202400Y-89560400D01*
X146202400Y-89560400D02*
X145999200Y-89763600D01*
X146296300Y-84774100D02*
X144718100Y-84774100D01*
X144718100Y-84774100D02*
X144729200Y-84785200D01*
X144729200Y-84785200D02*
X144729200Y-87934800D01*
X144729200Y-87934800D02*
X145999200Y-89204800D01*
X145999200Y-89204800D02*
X145999200Y-89763600D01*
X145999200Y-89763600D02*
X145999200Y-90722000D01*
X145999200Y-90722000D02*
X146031300Y-90754100D01*
X149663800Y-86364100D02*
X148695700Y-86364100D01*
X148695700Y-86364100D02*
X148692900Y-86361300D01*
X148692900Y-86361300D02*
X148692900Y-85904100D01*
X149663800Y-85904100D02*
X148692900Y-85904100D01*
X148692900Y-85904100D02*
X148793200Y-85803800D01*
X148793200Y-85803800D02*
X148793200Y-85444100D01*
X153119300Y-74070200D02*
X153119300Y-76141100D01*
X153119300Y-76141100D02*
X152603200Y-76657200D01*
X152603200Y-76657200D02*
X150876000Y-76657200D01*
X150876000Y-76657200D02*
X150774400Y-76758800D01*
X150774400Y-76758800D02*
X150571200Y-76758800D01*
X150571200Y-76758800D02*
X150476300Y-76853700D01*
X150476300Y-76853700D02*
X150476300Y-78054100D01*
X150476300Y-80594100D02*
X149174300Y-80594100D01*
X149174300Y-80594100D02*
X149098000Y-80670400D01*
X149098000Y-83159600D02*
X149098000Y-80670400D01*
X149098000Y-80670400D02*
X149098000Y-78181200D01*
X149225100Y-78054100D02*
X150476300Y-78054100D01*
X149098000Y-78181200D02*
X149225100Y-78054100D01*
X150376300Y-84274100D02*
X150376300Y-83574300D01*
X150376300Y-83574300D02*
X149961600Y-83159600D01*
X149961600Y-83159600D02*
X149098000Y-83159600D01*
X148793200Y-83464400D02*
X148793200Y-84984100D01*
X149098000Y-83159600D02*
X148793200Y-83464400D01*
X149663800Y-84984100D02*
X148793200Y-84984100D01*
X148793200Y-84984100D02*
X146506300Y-84984100D01*
X146506300Y-84984100D02*
X148695900Y-84984100D01*
X148695900Y-84984100D02*
X148793200Y-85081400D01*
X148793200Y-85081400D02*
X148793200Y-85444100D01*
D26*
X152603200Y-76657200D02*
X150876000Y-76657200D01*
X153119300Y-76141100D02*
X152603200Y-76657200D01*
X164134800Y-94437200D02*
X164134800Y-94843600D01*
D25*
X150376300Y-87074100D02*
X150376300Y-88891700D01*
X150376300Y-88891700D02*
X149707600Y-89560400D01*
X150376300Y-83574300D02*
X149809200Y-83007200D01*
X153088800Y-85444100D02*
X154228800Y-85444100D01*
X154127200Y-85445600D02*
X154228800Y-85445600D01*
X154227300Y-85445600D02*
X154127200Y-85445600D01*
X154228800Y-85444100D02*
X154227300Y-85445600D01*
X153088800Y-85904100D02*
X154228800Y-85904100D01*
X153088800Y-84984100D02*
X154275300Y-84984100D01*
X154173900Y-86364100D02*
X153088800Y-86364100D01*
X154228800Y-86309200D02*
X154173900Y-86364100D01*
X154228800Y-85030600D02*
X154228800Y-85445600D01*
X154228800Y-85445600D02*
X154228800Y-85902800D01*
X154228800Y-85902800D02*
X154228800Y-86309200D01*
X154275300Y-84984100D02*
X154228800Y-85030600D01*
X149663800Y-84984100D02*
X148695900Y-84984100D01*
X148695900Y-84984100D02*
X148691600Y-84988400D01*
X149663800Y-85444100D02*
X148793200Y-85444100D01*
X148793200Y-85444100D02*
X148693100Y-85444100D01*
X148693100Y-85444100D02*
X148691600Y-85445600D01*
X148692900Y-85904100D02*
X148691600Y-85902800D01*
X148695700Y-86364100D02*
X148691600Y-86360000D01*
D27*
X150130300Y-85904100D02*
X150487300Y-85674100D01*
X149663800Y-85904100D02*
X150130300Y-85904100D01*
X149639800Y-85928100D02*
X149663800Y-85904100D01*
D25*
X149707600Y-89560400D02*
X146507200Y-89560400D01*
X146507200Y-89560400D02*
X146354800Y-89560400D01*
X152276300Y-82216500D02*
X152276300Y-80594100D01*
X151888642Y-82584934D02*
X152276300Y-82216500D01*
X151888642Y-82585397D02*
X151888642Y-82584934D01*
X151876300Y-82597739D02*
X151888642Y-82585397D01*
X151376300Y-83116500D02*
X151888642Y-82584934D01*
D26*
X155177800Y-77978000D02*
X152352400Y-77978000D01*
X152352400Y-77978000D02*
X152276300Y-78054100D01*
D28*
X152276300Y-78054100D02*
X152276300Y-80594100D01*
X152376300Y-77955800D02*
X152276300Y-78054100D01*
D26*
X155719300Y-77436500D02*
X155177800Y-77978000D01*
X155719300Y-74070200D02*
X155719300Y-77436500D01*
D25*
X151876300Y-84274100D02*
X151876300Y-82597739D01*
X151376300Y-84274100D02*
X151376300Y-83116500D01*
D27*
X151884300Y-84266100D02*
X151876300Y-84274100D01*
D25*
X146296300Y-88079500D02*
X146296300Y-86574100D01*
X146405600Y-86683400D02*
X146296300Y-86574100D01*
X147015200Y-88798400D02*
X146296300Y-88079500D01*
X149504400Y-88798400D02*
X147370800Y-88798400D01*
X147370800Y-88798400D02*
X147015200Y-88798400D01*
X149876300Y-88426500D02*
X149504400Y-88798400D01*
D27*
X150876300Y-82507100D02*
X150868300Y-82499100D01*
D25*
X149876300Y-87074100D02*
X149876300Y-88426500D01*
X150876300Y-84274100D02*
X150876300Y-82507100D01*
D27*
X149852300Y-87098100D02*
X149876300Y-87074100D01*
D26*
X157189600Y-90830400D02*
X157378400Y-90641600D01*
X157378400Y-90641600D02*
X159613600Y-90641600D01*
D25*
X151376300Y-87074100D02*
X151376300Y-87673100D01*
X151376300Y-87673100D02*
X151876300Y-88173100D01*
X151876300Y-87074100D02*
X151876300Y-88173100D01*
X151876300Y-88173100D02*
X153060400Y-89357200D01*
X153060400Y-89357200D02*
X154025600Y-89357200D01*
X154025600Y-89357200D02*
X154417600Y-89749200D01*
D26*
X159613600Y-90641600D02*
X159628000Y-90627200D01*
X159628000Y-90627200D02*
X161594800Y-90627200D01*
X161594800Y-90627200D02*
X162153600Y-90068400D01*
X162153600Y-90068400D02*
X162153600Y-79400400D01*
X162153600Y-79400400D02*
X162356800Y-79197200D01*
X162356800Y-79197200D02*
X164134800Y-79197200D01*
X154417600Y-90830400D02*
X157189600Y-90830400D01*
D25*
X154417600Y-89749200D02*
X154417600Y-90830400D01*
X152876300Y-84274100D02*
X154835300Y-84274100D01*
X154835300Y-84274100D02*
X154889200Y-84328000D01*
X152876300Y-84274100D02*
X153114300Y-84274100D01*
X153114300Y-84274100D02*
X153568400Y-83820000D01*
X152876300Y-84274100D02*
X152876300Y-84207300D01*
X152876300Y-84207300D02*
X153466800Y-83616800D01*
X152876300Y-84274100D02*
X152876300Y-83902500D01*
X152876300Y-83902500D02*
X153212800Y-83566000D01*
X152376300Y-84274100D02*
X152376300Y-84097700D01*
X152376300Y-84097700D02*
X153416000Y-83058000D01*
D27*
X152900300Y-84250100D02*
X152876300Y-84274100D01*
D26*
X158063200Y-82854800D02*
X158597600Y-83389200D01*
D25*
X152876300Y-87074100D02*
X152876300Y-87953900D01*
X152876300Y-87953900D02*
X153162000Y-88239600D01*
X152376300Y-87074100D02*
X152376300Y-87860300D01*
X152376300Y-87860300D02*
X152755600Y-88239600D01*
X152755600Y-88239600D02*
X153162000Y-88239600D01*
D27*
X152900300Y-87098100D02*
X152876300Y-87074100D01*
D26*
X153162000Y-88239600D02*
X153974800Y-88239600D01*
X153974800Y-88239600D02*
X155525200Y-86689200D01*
X155525200Y-86689200D02*
X158597600Y-86689200D01*
X147831300Y-90754100D02*
X150825200Y-90754100D01*
D25*
X150825200Y-90627200D02*
X150825200Y-90754100D01*
X150825200Y-90703000D02*
X150825200Y-90627200D01*
X150876300Y-90754100D02*
X150825200Y-90703000D01*
D26*
X150825200Y-90754100D02*
X152541300Y-90754100D01*
X152541300Y-90754100D02*
X152617600Y-90830400D01*
D25*
X150876300Y-87074100D02*
X150876300Y-90754100D01*
D26*
X139982800Y-81907200D02*
X139982800Y-76508200D01*
X139982800Y-76508200D02*
X139052300Y-75577700D01*
X126161800Y-79070200D02*
X126161800Y-76593700D01*
X127177800Y-75577700D02*
X139052300Y-75577700D01*
X126161800Y-76593700D02*
X127177800Y-75577700D01*
X132894800Y-81483200D02*
X132894800Y-82903600D01*
X127711200Y-106934000D02*
X126187200Y-106934000D01*
X128473200Y-106172000D02*
X127711200Y-106934000D01*
X128473200Y-87325200D02*
X128473200Y-106172000D01*
X132894800Y-82903600D02*
X128473200Y-87325200D01*
D29*
G36*
X161264600Y-82008174D02*
X161207298Y-81950873D01*
X160973909Y-81854200D01*
X158883350Y-81854200D01*
X158724600Y-82012950D01*
X158724600Y-83262200D01*
X158744600Y-83262200D01*
X158744600Y-83516200D01*
X158724600Y-83516200D01*
X158724600Y-83536200D01*
X158470600Y-83536200D01*
X158470600Y-83516200D01*
X155871350Y-83516200D01*
X155712600Y-83674950D01*
X155712600Y-84415510D01*
X155723765Y-84442464D01*
X154790762Y-84432040D01*
X154566139Y-84281952D01*
X154275300Y-84224100D01*
X153631300Y-84224100D01*
X153631300Y-84147098D01*
X153476990Y-84147098D01*
X153634678Y-84027645D01*
X153551519Y-83742485D01*
X153365564Y-83510855D01*
X153115423Y-83373668D01*
X154109630Y-82362890D01*
X155712600Y-82362890D01*
X155712600Y-83103450D01*
X155871350Y-83262200D01*
X158470600Y-83262200D01*
X158470600Y-82012950D01*
X158311850Y-81854200D01*
X156221291Y-81854200D01*
X155987902Y-81950873D01*
X155809273Y-82129501D01*
X155712600Y-82362890D01*
X154109630Y-82362890D01*
X155399621Y-81051400D01*
X161264600Y-81051400D01*
X161264600Y-82008174D01*
X161264600Y-82008174D01*
G37*
X161264600Y-82008174D02*
X161207298Y-81950873D01*
X160973909Y-81854200D01*
X158883350Y-81854200D01*
X158724600Y-82012950D01*
X158724600Y-83262200D01*
X158744600Y-83262200D01*
X158744600Y-83516200D01*
X158724600Y-83516200D01*
X158724600Y-83536200D01*
X158470600Y-83536200D01*
X158470600Y-83516200D01*
X155871350Y-83516200D01*
X155712600Y-83674950D01*
X155712600Y-84415510D01*
X155723765Y-84442464D01*
X154790762Y-84432040D01*
X154566139Y-84281952D01*
X154275300Y-84224100D01*
X153631300Y-84224100D01*
X153631300Y-84147098D01*
X153476990Y-84147098D01*
X153634678Y-84027645D01*
X153551519Y-83742485D01*
X153365564Y-83510855D01*
X153115423Y-83373668D01*
X154109630Y-82362890D01*
X155712600Y-82362890D01*
X155712600Y-83103450D01*
X155871350Y-83262200D01*
X158470600Y-83262200D01*
X158470600Y-82012950D01*
X158311850Y-81854200D01*
X156221291Y-81854200D01*
X155987902Y-81950873D01*
X155809273Y-82129501D01*
X155712600Y-82362890D01*
X154109630Y-82362890D01*
X155399621Y-81051400D01*
X161264600Y-81051400D01*
X161264600Y-82008174D01*
G36*
X155712600Y-86403450D02*
X155871350Y-86562200D01*
X158470600Y-86562200D01*
X158470600Y-86542200D01*
X158724600Y-86542200D01*
X158724600Y-86562200D01*
X158744600Y-86562200D01*
X158744600Y-86816200D01*
X158724600Y-86816200D01*
X158724600Y-88065450D01*
X158883350Y-88224200D01*
X160973909Y-88224200D01*
X161207298Y-88127527D01*
X161219527Y-88115299D01*
X161216009Y-88315800D01*
X153250448Y-88315800D01*
X152802889Y-88024887D01*
X152729608Y-87951606D01*
X152790264Y-87878643D01*
X152865564Y-87837345D01*
X152889283Y-87807800D01*
X152936300Y-87807800D01*
X152936300Y-87847323D01*
X153053296Y-87988060D01*
X153105123Y-87980181D01*
X153365564Y-87837345D01*
X153428231Y-87759285D01*
X154677357Y-86974950D01*
X155712600Y-86974950D01*
X155712600Y-87715510D01*
X155809273Y-87948899D01*
X155987902Y-88127527D01*
X156221291Y-88224200D01*
X158311850Y-88224200D01*
X158470600Y-88065450D01*
X158470600Y-86816200D01*
X155871350Y-86816200D01*
X155712600Y-86974950D01*
X154677357Y-86974950D01*
X155566335Y-86416755D01*
X155602859Y-86382006D01*
X155622986Y-86335786D01*
X155625800Y-86309200D01*
X155625800Y-85674200D01*
X155712600Y-85674200D01*
X155712600Y-86403450D01*
X155712600Y-86403450D01*
G37*
X155712600Y-86403450D02*
X155871350Y-86562200D01*
X158470600Y-86562200D01*
X158470600Y-86542200D01*
X158724600Y-86542200D01*
X158724600Y-86562200D01*
X158744600Y-86562200D01*
X158744600Y-86816200D01*
X158724600Y-86816200D01*
X158724600Y-88065450D01*
X158883350Y-88224200D01*
X160973909Y-88224200D01*
X161207298Y-88127527D01*
X161219527Y-88115299D01*
X161216009Y-88315800D01*
X153250448Y-88315800D01*
X152802889Y-88024887D01*
X152729608Y-87951606D01*
X152790264Y-87878643D01*
X152865564Y-87837345D01*
X152889283Y-87807800D01*
X152936300Y-87807800D01*
X152936300Y-87847323D01*
X153053296Y-87988060D01*
X153105123Y-87980181D01*
X153365564Y-87837345D01*
X153428231Y-87759285D01*
X154677357Y-86974950D01*
X155712600Y-86974950D01*
X155712600Y-87715510D01*
X155809273Y-87948899D01*
X155987902Y-88127527D01*
X156221291Y-88224200D01*
X158311850Y-88224200D01*
X158470600Y-88065450D01*
X158470600Y-86816200D01*
X155871350Y-86816200D01*
X155712600Y-86974950D01*
X154677357Y-86974950D01*
X155566335Y-86416755D01*
X155602859Y-86382006D01*
X155622986Y-86335786D01*
X155625800Y-86309200D01*
X155625800Y-85674200D01*
X155712600Y-85674200D01*
X155712600Y-86403450D01*
G36*
X150952200Y-76819100D02*
X150762050Y-76819100D01*
X150603300Y-76977850D01*
X150603300Y-77927100D01*
X150623300Y-77927100D01*
X150623300Y-78181100D01*
X150603300Y-78181100D01*
X150603300Y-79130350D01*
X150762050Y-79289100D01*
X150952200Y-79289100D01*
X150952200Y-79359100D01*
X150762050Y-79359100D01*
X150603300Y-79517850D01*
X150603300Y-80467100D01*
X150623300Y-80467100D01*
X150623300Y-80721100D01*
X150603300Y-80721100D01*
X150603300Y-80741100D01*
X150349300Y-80741100D01*
X150349300Y-80721100D01*
X149600050Y-80721100D01*
X149441300Y-80879850D01*
X149441300Y-81320410D01*
X149537973Y-81553799D01*
X149716602Y-81732427D01*
X149949991Y-81829100D01*
X150190200Y-81829100D01*
X150190200Y-81870866D01*
X150084108Y-81976773D01*
X149941462Y-82320301D01*
X149941138Y-82692267D01*
X150083183Y-83036043D01*
X150116300Y-83069218D01*
X150116300Y-83368521D01*
X149876300Y-83320782D01*
X149587374Y-83378253D01*
X149342889Y-83541612D01*
X149297555Y-83552862D01*
X149257205Y-83583084D01*
X149231792Y-83626624D01*
X149225044Y-83664259D01*
X149223583Y-83719790D01*
X149178771Y-83786856D01*
X149121300Y-84075782D01*
X149121300Y-84302405D01*
X149016601Y-84345773D01*
X148837973Y-84524402D01*
X148741300Y-84757791D01*
X148741300Y-84775350D01*
X148894162Y-84928212D01*
X148837973Y-84984402D01*
X148758936Y-85175214D01*
X148741300Y-85192850D01*
X148741300Y-85210409D01*
X148742829Y-85214100D01*
X148741300Y-85217791D01*
X148741300Y-85235350D01*
X148758936Y-85252986D01*
X148837973Y-85443798D01*
X148838275Y-85444100D01*
X148837973Y-85444402D01*
X148758936Y-85635214D01*
X148741300Y-85652850D01*
X148741300Y-85670409D01*
X148742829Y-85674100D01*
X148741300Y-85677791D01*
X148741300Y-85695350D01*
X148758936Y-85712986D01*
X148837973Y-85903798D01*
X148838275Y-85904100D01*
X148837973Y-85904402D01*
X148758936Y-86095214D01*
X148741300Y-86112850D01*
X148741300Y-86130409D01*
X148742829Y-86134100D01*
X148741300Y-86137791D01*
X148741300Y-86155350D01*
X148758936Y-86172986D01*
X148837973Y-86363798D01*
X148894162Y-86419988D01*
X148741300Y-86572850D01*
X148741300Y-86590409D01*
X148837973Y-86823798D01*
X149016601Y-87002427D01*
X149121300Y-87045795D01*
X149121300Y-87048964D01*
X149116300Y-87074100D01*
X149116300Y-87095084D01*
X149115700Y-87098100D01*
X149116300Y-87101116D01*
X149116300Y-87401400D01*
X147494414Y-87401400D01*
X147489790Y-87230295D01*
X147492731Y-87225990D01*
X147543740Y-86974100D01*
X147543740Y-86174100D01*
X147499462Y-85938783D01*
X147452930Y-85866470D01*
X147446954Y-85645369D01*
X147435617Y-85596247D01*
X147408983Y-85559442D01*
X147434627Y-85533798D01*
X147531300Y-85300409D01*
X147531300Y-85059850D01*
X147372550Y-84901100D01*
X146423300Y-84901100D01*
X146423300Y-84921100D01*
X146169300Y-84921100D01*
X146169300Y-84901100D01*
X145220050Y-84901100D01*
X145061300Y-85059850D01*
X145061300Y-85300409D01*
X145153003Y-85521800D01*
X145135600Y-85521800D01*
X145086190Y-85531806D01*
X145044565Y-85560247D01*
X145017285Y-85602641D01*
X145008600Y-85648800D01*
X145008600Y-87426800D01*
X145018606Y-87476210D01*
X145035738Y-87505263D01*
X145553037Y-88163644D01*
X145594152Y-88370339D01*
X145758899Y-88616901D01*
X146460153Y-89318155D01*
X146647194Y-89556207D01*
X146557609Y-89519100D01*
X146317050Y-89519100D01*
X146158300Y-89677850D01*
X146158300Y-90627100D01*
X146178300Y-90627100D01*
X146178300Y-90881100D01*
X146158300Y-90881100D01*
X146158300Y-91830350D01*
X146317050Y-91989100D01*
X146557609Y-91989100D01*
X146731187Y-91917202D01*
X146735824Y-92153690D01*
X146746797Y-92202894D01*
X146776048Y-92243953D01*
X146818969Y-92270397D01*
X146862800Y-92278200D01*
X156265750Y-92278200D01*
X156302150Y-92314600D01*
X157251400Y-92314600D01*
X157251400Y-92294600D01*
X157505400Y-92294600D01*
X157505400Y-92314600D01*
X158454650Y-92314600D01*
X158491050Y-92278200D01*
X158500950Y-92278200D01*
X158537350Y-92314600D01*
X159486600Y-92314600D01*
X159486600Y-92294600D01*
X159740600Y-92294600D01*
X159740600Y-92314600D01*
X160689850Y-92314600D01*
X160726250Y-92278200D01*
X162099171Y-92278200D01*
X163025419Y-93250760D01*
X162668550Y-93539174D01*
X162406920Y-94019923D01*
X162391960Y-94094130D01*
X162514460Y-94310200D01*
X163957000Y-94310200D01*
X163957000Y-94290200D01*
X164211000Y-94290200D01*
X164211000Y-94310200D01*
X164231000Y-94310200D01*
X164231000Y-94564200D01*
X164211000Y-94564200D01*
X164211000Y-95834200D01*
X164548820Y-95834200D01*
X164709579Y-95786751D01*
X164785525Y-96090535D01*
X161796800Y-96133850D01*
X161796800Y-94780270D01*
X162391960Y-94780270D01*
X162406920Y-94854477D01*
X162668550Y-95335226D01*
X163094239Y-95679259D01*
X163619180Y-95834200D01*
X163957000Y-95834200D01*
X163957000Y-94564200D01*
X162514460Y-94564200D01*
X162391960Y-94780270D01*
X161796800Y-94780270D01*
X161796800Y-94627700D01*
X161742754Y-94355995D01*
X161588846Y-94125654D01*
X161358505Y-93971746D01*
X161086800Y-93917700D01*
X144297400Y-93917700D01*
X144297400Y-92727350D01*
X156143400Y-92727350D01*
X156143400Y-92967909D01*
X156240073Y-93201298D01*
X156418701Y-93379927D01*
X156652090Y-93476600D01*
X157092650Y-93476600D01*
X157251400Y-93317850D01*
X157251400Y-92568600D01*
X157505400Y-92568600D01*
X157505400Y-93317850D01*
X157664150Y-93476600D01*
X158104710Y-93476600D01*
X158338099Y-93379927D01*
X158496000Y-93222025D01*
X158653901Y-93379927D01*
X158887290Y-93476600D01*
X159327850Y-93476600D01*
X159486600Y-93317850D01*
X159486600Y-92568600D01*
X159740600Y-92568600D01*
X159740600Y-93317850D01*
X159899350Y-93476600D01*
X160339910Y-93476600D01*
X160573299Y-93379927D01*
X160751927Y-93201298D01*
X160848600Y-92967909D01*
X160848600Y-92727350D01*
X160689850Y-92568600D01*
X159740600Y-92568600D01*
X159486600Y-92568600D01*
X158537350Y-92568600D01*
X158496000Y-92609950D01*
X158454650Y-92568600D01*
X157505400Y-92568600D01*
X157251400Y-92568600D01*
X156302150Y-92568600D01*
X156143400Y-92727350D01*
X144297400Y-92727350D01*
X144297400Y-91039850D01*
X144996300Y-91039850D01*
X144996300Y-91480410D01*
X145092973Y-91713799D01*
X145271602Y-91892427D01*
X145504991Y-91989100D01*
X145745550Y-91989100D01*
X145904300Y-91830350D01*
X145904300Y-90881100D01*
X145155050Y-90881100D01*
X144996300Y-91039850D01*
X144297400Y-91039850D01*
X144297400Y-90027790D01*
X144996300Y-90027790D01*
X144996300Y-90468350D01*
X145155050Y-90627100D01*
X145904300Y-90627100D01*
X145904300Y-89677850D01*
X145745550Y-89519100D01*
X145504991Y-89519100D01*
X145271602Y-89615773D01*
X145092973Y-89794401D01*
X144996300Y-90027790D01*
X144297400Y-90027790D01*
X144297400Y-84247791D01*
X145061300Y-84247791D01*
X145061300Y-84488350D01*
X145220050Y-84647100D01*
X146169300Y-84647100D01*
X146169300Y-83897850D01*
X146423300Y-83897850D01*
X146423300Y-84647100D01*
X147372550Y-84647100D01*
X147531300Y-84488350D01*
X147531300Y-84247791D01*
X147434627Y-84014402D01*
X147255999Y-83835773D01*
X147022610Y-83739100D01*
X146582050Y-83739100D01*
X146423300Y-83897850D01*
X146169300Y-83897850D01*
X146010550Y-83739100D01*
X145569990Y-83739100D01*
X145336601Y-83835773D01*
X145157973Y-84014402D01*
X145061300Y-84247791D01*
X144297400Y-84247791D01*
X144297400Y-83486130D01*
X145572930Y-79867790D01*
X149441300Y-79867790D01*
X149441300Y-80308350D01*
X149600050Y-80467100D01*
X150349300Y-80467100D01*
X150349300Y-79517850D01*
X150190550Y-79359100D01*
X149949991Y-79359100D01*
X149716602Y-79455773D01*
X149537973Y-79634401D01*
X149441300Y-79867790D01*
X145572930Y-79867790D01*
X146111556Y-78339850D01*
X149441300Y-78339850D01*
X149441300Y-78780410D01*
X149537973Y-79013799D01*
X149716602Y-79192427D01*
X149949991Y-79289100D01*
X150190550Y-79289100D01*
X150349300Y-79130350D01*
X150349300Y-78181100D01*
X149600050Y-78181100D01*
X149441300Y-78339850D01*
X146111556Y-78339850D01*
X146468325Y-77327790D01*
X149441300Y-77327790D01*
X149441300Y-77768350D01*
X149600050Y-77927100D01*
X150349300Y-77927100D01*
X150349300Y-76977850D01*
X150190550Y-76819100D01*
X149949991Y-76819100D01*
X149716602Y-76915773D01*
X149537973Y-77094401D01*
X149441300Y-77327790D01*
X146468325Y-77327790D01*
X146749491Y-76530200D01*
X150952200Y-76530200D01*
X150952200Y-76819100D01*
X150952200Y-76819100D01*
G37*
X150952200Y-76819100D02*
X150762050Y-76819100D01*
X150603300Y-76977850D01*
X150603300Y-77927100D01*
X150623300Y-77927100D01*
X150623300Y-78181100D01*
X150603300Y-78181100D01*
X150603300Y-79130350D01*
X150762050Y-79289100D01*
X150952200Y-79289100D01*
X150952200Y-79359100D01*
X150762050Y-79359100D01*
X150603300Y-79517850D01*
X150603300Y-80467100D01*
X150623300Y-80467100D01*
X150623300Y-80721100D01*
X150603300Y-80721100D01*
X150603300Y-80741100D01*
X150349300Y-80741100D01*
X150349300Y-80721100D01*
X149600050Y-80721100D01*
X149441300Y-80879850D01*
X149441300Y-81320410D01*
X149537973Y-81553799D01*
X149716602Y-81732427D01*
X149949991Y-81829100D01*
X150190200Y-81829100D01*
X150190200Y-81870866D01*
X150084108Y-81976773D01*
X149941462Y-82320301D01*
X149941138Y-82692267D01*
X150083183Y-83036043D01*
X150116300Y-83069218D01*
X150116300Y-83368521D01*
X149876300Y-83320782D01*
X149587374Y-83378253D01*
X149342889Y-83541612D01*
X149297555Y-83552862D01*
X149257205Y-83583084D01*
X149231792Y-83626624D01*
X149225044Y-83664259D01*
X149223583Y-83719790D01*
X149178771Y-83786856D01*
X149121300Y-84075782D01*
X149121300Y-84302405D01*
X149016601Y-84345773D01*
X148837973Y-84524402D01*
X148741300Y-84757791D01*
X148741300Y-84775350D01*
X148894162Y-84928212D01*
X148837973Y-84984402D01*
X148758936Y-85175214D01*
X148741300Y-85192850D01*
X148741300Y-85210409D01*
X148742829Y-85214100D01*
X148741300Y-85217791D01*
X148741300Y-85235350D01*
X148758936Y-85252986D01*
X148837973Y-85443798D01*
X148838275Y-85444100D01*
X148837973Y-85444402D01*
X148758936Y-85635214D01*
X148741300Y-85652850D01*
X148741300Y-85670409D01*
X148742829Y-85674100D01*
X148741300Y-85677791D01*
X148741300Y-85695350D01*
X148758936Y-85712986D01*
X148837973Y-85903798D01*
X148838275Y-85904100D01*
X148837973Y-85904402D01*
X148758936Y-86095214D01*
X148741300Y-86112850D01*
X148741300Y-86130409D01*
X148742829Y-86134100D01*
X148741300Y-86137791D01*
X148741300Y-86155350D01*
X148758936Y-86172986D01*
X148837973Y-86363798D01*
X148894162Y-86419988D01*
X148741300Y-86572850D01*
X148741300Y-86590409D01*
X148837973Y-86823798D01*
X149016601Y-87002427D01*
X149121300Y-87045795D01*
X149121300Y-87048964D01*
X149116300Y-87074100D01*
X149116300Y-87095084D01*
X149115700Y-87098100D01*
X149116300Y-87101116D01*
X149116300Y-87401400D01*
X147494414Y-87401400D01*
X147489790Y-87230295D01*
X147492731Y-87225990D01*
X147543740Y-86974100D01*
X147543740Y-86174100D01*
X147499462Y-85938783D01*
X147452930Y-85866470D01*
X147446954Y-85645369D01*
X147435617Y-85596247D01*
X147408983Y-85559442D01*
X147434627Y-85533798D01*
X147531300Y-85300409D01*
X147531300Y-85059850D01*
X147372550Y-84901100D01*
X146423300Y-84901100D01*
X146423300Y-84921100D01*
X146169300Y-84921100D01*
X146169300Y-84901100D01*
X145220050Y-84901100D01*
X145061300Y-85059850D01*
X145061300Y-85300409D01*
X145153003Y-85521800D01*
X145135600Y-85521800D01*
X145086190Y-85531806D01*
X145044565Y-85560247D01*
X145017285Y-85602641D01*
X145008600Y-85648800D01*
X145008600Y-87426800D01*
X145018606Y-87476210D01*
X145035738Y-87505263D01*
X145553037Y-88163644D01*
X145594152Y-88370339D01*
X145758899Y-88616901D01*
X146460153Y-89318155D01*
X146647194Y-89556207D01*
X146557609Y-89519100D01*
X146317050Y-89519100D01*
X146158300Y-89677850D01*
X146158300Y-90627100D01*
X146178300Y-90627100D01*
X146178300Y-90881100D01*
X146158300Y-90881100D01*
X146158300Y-91830350D01*
X146317050Y-91989100D01*
X146557609Y-91989100D01*
X146731187Y-91917202D01*
X146735824Y-92153690D01*
X146746797Y-92202894D01*
X146776048Y-92243953D01*
X146818969Y-92270397D01*
X146862800Y-92278200D01*
X156265750Y-92278200D01*
X156302150Y-92314600D01*
X157251400Y-92314600D01*
X157251400Y-92294600D01*
X157505400Y-92294600D01*
X157505400Y-92314600D01*
X158454650Y-92314600D01*
X158491050Y-92278200D01*
X158500950Y-92278200D01*
X158537350Y-92314600D01*
X159486600Y-92314600D01*
X159486600Y-92294600D01*
X159740600Y-92294600D01*
X159740600Y-92314600D01*
X160689850Y-92314600D01*
X160726250Y-92278200D01*
X162099171Y-92278200D01*
X163025419Y-93250760D01*
X162668550Y-93539174D01*
X162406920Y-94019923D01*
X162391960Y-94094130D01*
X162514460Y-94310200D01*
X163957000Y-94310200D01*
X163957000Y-94290200D01*
X164211000Y-94290200D01*
X164211000Y-94310200D01*
X164231000Y-94310200D01*
X164231000Y-94564200D01*
X164211000Y-94564200D01*
X164211000Y-95834200D01*
X164548820Y-95834200D01*
X164709579Y-95786751D01*
X164785525Y-96090535D01*
X161796800Y-96133850D01*
X161796800Y-94780270D01*
X162391960Y-94780270D01*
X162406920Y-94854477D01*
X162668550Y-95335226D01*
X163094239Y-95679259D01*
X163619180Y-95834200D01*
X163957000Y-95834200D01*
X163957000Y-94564200D01*
X162514460Y-94564200D01*
X162391960Y-94780270D01*
X161796800Y-94780270D01*
X161796800Y-94627700D01*
X161742754Y-94355995D01*
X161588846Y-94125654D01*
X161358505Y-93971746D01*
X161086800Y-93917700D01*
X144297400Y-93917700D01*
X144297400Y-92727350D01*
X156143400Y-92727350D01*
X156143400Y-92967909D01*
X156240073Y-93201298D01*
X156418701Y-93379927D01*
X156652090Y-93476600D01*
X157092650Y-93476600D01*
X157251400Y-93317850D01*
X157251400Y-92568600D01*
X157505400Y-92568600D01*
X157505400Y-93317850D01*
X157664150Y-93476600D01*
X158104710Y-93476600D01*
X158338099Y-93379927D01*
X158496000Y-93222025D01*
X158653901Y-93379927D01*
X158887290Y-93476600D01*
X159327850Y-93476600D01*
X159486600Y-93317850D01*
X159486600Y-92568600D01*
X159740600Y-92568600D01*
X159740600Y-93317850D01*
X159899350Y-93476600D01*
X160339910Y-93476600D01*
X160573299Y-93379927D01*
X160751927Y-93201298D01*
X160848600Y-92967909D01*
X160848600Y-92727350D01*
X160689850Y-92568600D01*
X159740600Y-92568600D01*
X159486600Y-92568600D01*
X158537350Y-92568600D01*
X158496000Y-92609950D01*
X158454650Y-92568600D01*
X157505400Y-92568600D01*
X157251400Y-92568600D01*
X156302150Y-92568600D01*
X156143400Y-92727350D01*
X144297400Y-92727350D01*
X144297400Y-91039850D01*
X144996300Y-91039850D01*
X144996300Y-91480410D01*
X145092973Y-91713799D01*
X145271602Y-91892427D01*
X145504991Y-91989100D01*
X145745550Y-91989100D01*
X145904300Y-91830350D01*
X145904300Y-90881100D01*
X145155050Y-90881100D01*
X144996300Y-91039850D01*
X144297400Y-91039850D01*
X144297400Y-90027790D01*
X144996300Y-90027790D01*
X144996300Y-90468350D01*
X145155050Y-90627100D01*
X145904300Y-90627100D01*
X145904300Y-89677850D01*
X145745550Y-89519100D01*
X145504991Y-89519100D01*
X145271602Y-89615773D01*
X145092973Y-89794401D01*
X144996300Y-90027790D01*
X144297400Y-90027790D01*
X144297400Y-84247791D01*
X145061300Y-84247791D01*
X145061300Y-84488350D01*
X145220050Y-84647100D01*
X146169300Y-84647100D01*
X146169300Y-83897850D01*
X146423300Y-83897850D01*
X146423300Y-84647100D01*
X147372550Y-84647100D01*
X147531300Y-84488350D01*
X147531300Y-84247791D01*
X147434627Y-84014402D01*
X147255999Y-83835773D01*
X147022610Y-83739100D01*
X146582050Y-83739100D01*
X146423300Y-83897850D01*
X146169300Y-83897850D01*
X146010550Y-83739100D01*
X145569990Y-83739100D01*
X145336601Y-83835773D01*
X145157973Y-84014402D01*
X145061300Y-84247791D01*
X144297400Y-84247791D01*
X144297400Y-83486130D01*
X145572930Y-79867790D01*
X149441300Y-79867790D01*
X149441300Y-80308350D01*
X149600050Y-80467100D01*
X150349300Y-80467100D01*
X150349300Y-79517850D01*
X150190550Y-79359100D01*
X149949991Y-79359100D01*
X149716602Y-79455773D01*
X149537973Y-79634401D01*
X149441300Y-79867790D01*
X145572930Y-79867790D01*
X146111556Y-78339850D01*
X149441300Y-78339850D01*
X149441300Y-78780410D01*
X149537973Y-79013799D01*
X149716602Y-79192427D01*
X149949991Y-79289100D01*
X150190550Y-79289100D01*
X150349300Y-79130350D01*
X150349300Y-78181100D01*
X149600050Y-78181100D01*
X149441300Y-78339850D01*
X146111556Y-78339850D01*
X146468325Y-77327790D01*
X149441300Y-77327790D01*
X149441300Y-77768350D01*
X149600050Y-77927100D01*
X150349300Y-77927100D01*
X150349300Y-76977850D01*
X150190550Y-76819100D01*
X149949991Y-76819100D01*
X149716602Y-76915773D01*
X149537973Y-77094401D01*
X149441300Y-77327790D01*
X146468325Y-77327790D01*
X146749491Y-76530200D01*
X150952200Y-76530200D01*
X150952200Y-76819100D01*
G36*
X152120301Y-88679103D02*
X152218199Y-88777001D01*
X152249300Y-88797782D01*
X152517214Y-89044263D01*
X152560351Y-89070353D01*
X152603200Y-89077800D01*
X161569400Y-89077800D01*
X161569400Y-91363800D01*
X160767459Y-91363800D01*
X160848600Y-91167909D01*
X160848600Y-90927350D01*
X160689850Y-90768600D01*
X159740600Y-90768600D01*
X159740600Y-90788600D01*
X159486600Y-90788600D01*
X159486600Y-90768600D01*
X158537350Y-90768600D01*
X158496000Y-90809950D01*
X158454650Y-90768600D01*
X157505400Y-90768600D01*
X157505400Y-90788600D01*
X157251400Y-90788600D01*
X157251400Y-90768600D01*
X156302150Y-90768600D01*
X156143400Y-90927350D01*
X156143400Y-91167909D01*
X156224541Y-91363800D01*
X155452600Y-91363800D01*
X155452600Y-91116150D01*
X155293850Y-90957400D01*
X154544600Y-90957400D01*
X154544600Y-90977400D01*
X154290600Y-90977400D01*
X154290600Y-90957400D01*
X154270600Y-90957400D01*
X154270600Y-90703400D01*
X154290600Y-90703400D01*
X154290600Y-89754150D01*
X154544600Y-89754150D01*
X154544600Y-90703400D01*
X155293850Y-90703400D01*
X155452600Y-90544650D01*
X155452600Y-90115291D01*
X156143400Y-90115291D01*
X156143400Y-90355850D01*
X156302150Y-90514600D01*
X157251400Y-90514600D01*
X157251400Y-89765350D01*
X157505400Y-89765350D01*
X157505400Y-90514600D01*
X158454650Y-90514600D01*
X158496000Y-90473250D01*
X158537350Y-90514600D01*
X159486600Y-90514600D01*
X159486600Y-89765350D01*
X159740600Y-89765350D01*
X159740600Y-90514600D01*
X160689850Y-90514600D01*
X160848600Y-90355850D01*
X160848600Y-90115291D01*
X160751927Y-89881902D01*
X160573299Y-89703273D01*
X160339910Y-89606600D01*
X159899350Y-89606600D01*
X159740600Y-89765350D01*
X159486600Y-89765350D01*
X159327850Y-89606600D01*
X158887290Y-89606600D01*
X158653901Y-89703273D01*
X158496000Y-89861175D01*
X158338099Y-89703273D01*
X158104710Y-89606600D01*
X157664150Y-89606600D01*
X157505400Y-89765350D01*
X157251400Y-89765350D01*
X157092650Y-89606600D01*
X156652090Y-89606600D01*
X156418701Y-89703273D01*
X156240073Y-89881902D01*
X156143400Y-90115291D01*
X155452600Y-90115291D01*
X155452600Y-90104090D01*
X155355927Y-89870701D01*
X155177298Y-89692073D01*
X154943909Y-89595400D01*
X154703350Y-89595400D01*
X154544600Y-89754150D01*
X154290600Y-89754150D01*
X154131850Y-89595400D01*
X154000200Y-89595400D01*
X154000200Y-89560400D01*
X153990194Y-89510990D01*
X153961753Y-89469365D01*
X153919359Y-89442085D01*
X153873200Y-89433400D01*
X152017181Y-89433400D01*
X151636300Y-89286908D01*
X151636300Y-88233822D01*
X152120301Y-88679103D01*
X152120301Y-88679103D01*
G37*
X152120301Y-88679103D02*
X152218199Y-88777001D01*
X152249300Y-88797782D01*
X152517214Y-89044263D01*
X152560351Y-89070353D01*
X152603200Y-89077800D01*
X161569400Y-89077800D01*
X161569400Y-91363800D01*
X160767459Y-91363800D01*
X160848600Y-91167909D01*
X160848600Y-90927350D01*
X160689850Y-90768600D01*
X159740600Y-90768600D01*
X159740600Y-90788600D01*
X159486600Y-90788600D01*
X159486600Y-90768600D01*
X158537350Y-90768600D01*
X158496000Y-90809950D01*
X158454650Y-90768600D01*
X157505400Y-90768600D01*
X157505400Y-90788600D01*
X157251400Y-90788600D01*
X157251400Y-90768600D01*
X156302150Y-90768600D01*
X156143400Y-90927350D01*
X156143400Y-91167909D01*
X156224541Y-91363800D01*
X155452600Y-91363800D01*
X155452600Y-91116150D01*
X155293850Y-90957400D01*
X154544600Y-90957400D01*
X154544600Y-90977400D01*
X154290600Y-90977400D01*
X154290600Y-90957400D01*
X154270600Y-90957400D01*
X154270600Y-90703400D01*
X154290600Y-90703400D01*
X154290600Y-89754150D01*
X154544600Y-89754150D01*
X154544600Y-90703400D01*
X155293850Y-90703400D01*
X155452600Y-90544650D01*
X155452600Y-90115291D01*
X156143400Y-90115291D01*
X156143400Y-90355850D01*
X156302150Y-90514600D01*
X157251400Y-90514600D01*
X157251400Y-89765350D01*
X157505400Y-89765350D01*
X157505400Y-90514600D01*
X158454650Y-90514600D01*
X158496000Y-90473250D01*
X158537350Y-90514600D01*
X159486600Y-90514600D01*
X159486600Y-89765350D01*
X159740600Y-89765350D01*
X159740600Y-90514600D01*
X160689850Y-90514600D01*
X160848600Y-90355850D01*
X160848600Y-90115291D01*
X160751927Y-89881902D01*
X160573299Y-89703273D01*
X160339910Y-89606600D01*
X159899350Y-89606600D01*
X159740600Y-89765350D01*
X159486600Y-89765350D01*
X159327850Y-89606600D01*
X158887290Y-89606600D01*
X158653901Y-89703273D01*
X158496000Y-89861175D01*
X158338099Y-89703273D01*
X158104710Y-89606600D01*
X157664150Y-89606600D01*
X157505400Y-89765350D01*
X157251400Y-89765350D01*
X157092650Y-89606600D01*
X156652090Y-89606600D01*
X156418701Y-89703273D01*
X156240073Y-89881902D01*
X156143400Y-90115291D01*
X155452600Y-90115291D01*
X155452600Y-90104090D01*
X155355927Y-89870701D01*
X155177298Y-89692073D01*
X154943909Y-89595400D01*
X154703350Y-89595400D01*
X154544600Y-89754150D01*
X154290600Y-89754150D01*
X154131850Y-89595400D01*
X154000200Y-89595400D01*
X154000200Y-89560400D01*
X153990194Y-89510990D01*
X153961753Y-89469365D01*
X153919359Y-89442085D01*
X153873200Y-89433400D01*
X152017181Y-89433400D01*
X151636300Y-89286908D01*
X151636300Y-88233822D01*
X152120301Y-88679103D01*
G36*
X155819300Y-75221450D02*
X155978050Y-75380200D01*
X156045610Y-75380200D01*
X156138282Y-75341814D01*
X156183866Y-78487085D01*
X151938857Y-82981800D01*
X151691590Y-82981800D01*
X151750261Y-82840507D01*
X152334944Y-82286596D01*
X152363932Y-82245351D01*
X152374594Y-82193117D01*
X152370917Y-81829100D01*
X152403302Y-81829100D01*
X152403302Y-81670352D01*
X152562050Y-81829100D01*
X152802609Y-81829100D01*
X153035998Y-81732427D01*
X153214627Y-81553799D01*
X153311300Y-81320410D01*
X153311300Y-80879850D01*
X153152550Y-80721100D01*
X152403300Y-80721100D01*
X152403300Y-80741100D01*
X152359927Y-80741100D01*
X152356958Y-80447100D01*
X152403300Y-80447100D01*
X152403300Y-80467100D01*
X153152550Y-80467100D01*
X153311300Y-80308350D01*
X153311300Y-79867790D01*
X153214627Y-79634401D01*
X153035998Y-79455773D01*
X152802609Y-79359100D01*
X152562050Y-79359100D01*
X152403302Y-79517848D01*
X152403302Y-79359100D01*
X152345968Y-79359100D01*
X152345261Y-79289100D01*
X152403302Y-79289100D01*
X152403302Y-79130352D01*
X152562050Y-79289100D01*
X152802609Y-79289100D01*
X153035998Y-79192427D01*
X153214627Y-79013799D01*
X153311300Y-78780410D01*
X153311300Y-78339850D01*
X153152550Y-78181100D01*
X152403300Y-78181100D01*
X152403300Y-78201100D01*
X152334271Y-78201100D01*
X152331301Y-77907100D01*
X152403300Y-77907100D01*
X152403300Y-77927100D01*
X153152550Y-77927100D01*
X153311300Y-77768350D01*
X153311300Y-77327790D01*
X153296559Y-77292200D01*
X154584400Y-77292200D01*
X154633810Y-77282194D01*
X154675435Y-77253753D01*
X154702715Y-77211359D01*
X154711400Y-77165200D01*
X154711400Y-75375310D01*
X154748889Y-75368256D01*
X154869300Y-75392640D01*
X155269300Y-75392640D01*
X155375005Y-75372750D01*
X155392990Y-75380200D01*
X155460550Y-75380200D01*
X155489554Y-75351196D01*
X155504617Y-75348362D01*
X155720741Y-75209290D01*
X155744649Y-75174299D01*
X155819300Y-75172037D01*
X155819300Y-75221450D01*
X155819300Y-75221450D01*
G37*
X155819300Y-75221450D02*
X155978050Y-75380200D01*
X156045610Y-75380200D01*
X156138282Y-75341814D01*
X156183866Y-78487085D01*
X151938857Y-82981800D01*
X151691590Y-82981800D01*
X151750261Y-82840507D01*
X152334944Y-82286596D01*
X152363932Y-82245351D01*
X152374594Y-82193117D01*
X152370917Y-81829100D01*
X152403302Y-81829100D01*
X152403302Y-81670352D01*
X152562050Y-81829100D01*
X152802609Y-81829100D01*
X153035998Y-81732427D01*
X153214627Y-81553799D01*
X153311300Y-81320410D01*
X153311300Y-80879850D01*
X153152550Y-80721100D01*
X152403300Y-80721100D01*
X152403300Y-80741100D01*
X152359927Y-80741100D01*
X152356958Y-80447100D01*
X152403300Y-80447100D01*
X152403300Y-80467100D01*
X153152550Y-80467100D01*
X153311300Y-80308350D01*
X153311300Y-79867790D01*
X153214627Y-79634401D01*
X153035998Y-79455773D01*
X152802609Y-79359100D01*
X152562050Y-79359100D01*
X152403302Y-79517848D01*
X152403302Y-79359100D01*
X152345968Y-79359100D01*
X152345261Y-79289100D01*
X152403302Y-79289100D01*
X152403302Y-79130352D01*
X152562050Y-79289100D01*
X152802609Y-79289100D01*
X153035998Y-79192427D01*
X153214627Y-79013799D01*
X153311300Y-78780410D01*
X153311300Y-78339850D01*
X153152550Y-78181100D01*
X152403300Y-78181100D01*
X152403300Y-78201100D01*
X152334271Y-78201100D01*
X152331301Y-77907100D01*
X152403300Y-77907100D01*
X152403300Y-77927100D01*
X153152550Y-77927100D01*
X153311300Y-77768350D01*
X153311300Y-77327790D01*
X153296559Y-77292200D01*
X154584400Y-77292200D01*
X154633810Y-77282194D01*
X154675435Y-77253753D01*
X154702715Y-77211359D01*
X154711400Y-77165200D01*
X154711400Y-75375310D01*
X154748889Y-75368256D01*
X154869300Y-75392640D01*
X155269300Y-75392640D01*
X155375005Y-75372750D01*
X155392990Y-75380200D01*
X155460550Y-75380200D01*
X155489554Y-75351196D01*
X155504617Y-75348362D01*
X155720741Y-75209290D01*
X155744649Y-75174299D01*
X155819300Y-75172037D01*
X155819300Y-75221450D01*
M02*
