G04 #@! TF.FileFunction,Paste,Top*
%FSLAX46Y46*%
G04 Gerber Fmt 4.6, Leading zero omitted, Abs format (unit mm)*
G04 Created by KiCad (PCBNEW 4.0.2-stable) date 6/15/2017 1:23:54 PM*
%MOMM*%
G01*
G04 APERTURE LIST*
%ADD10C,0.100000*%
%ADD11O,0.240000X0.600000*%
%ADD12R,2.850000X1.580000*%
%ADD13R,0.575000X0.200000*%
%ADD14R,1.200000X0.800000*%
%ADD15R,0.800000X1.200000*%
%ADD16R,0.400000X1.350000*%
%ADD17R,4.500000X1.800000*%
G04 APERTURE END LIST*
D10*
G36*
X152746300Y-85554100D02*
X152746300Y-84894100D01*
X151496300Y-84894100D01*
X151496300Y-85554100D01*
X152746300Y-85554100D01*
G37*
G36*
X151256300Y-85554100D02*
X151256300Y-84894100D01*
X150006300Y-84894100D01*
X150006300Y-85554100D01*
X151256300Y-85554100D01*
G37*
G36*
X151256300Y-86454100D02*
X151256300Y-85794100D01*
X150006300Y-85794100D01*
X150006300Y-86454100D01*
X151256300Y-86454100D01*
G37*
G36*
X152746300Y-86454100D02*
X152746300Y-85794100D01*
X151496300Y-85794100D01*
X151496300Y-86454100D01*
X152746300Y-86454100D01*
G37*
D11*
X149876300Y-87074100D03*
X150376300Y-87074100D03*
X150876300Y-87074100D03*
X151376300Y-87074100D03*
X151876300Y-87074100D03*
X152376300Y-87074100D03*
X152876300Y-87074100D03*
X152876300Y-84274100D03*
X152376300Y-84274100D03*
X151876300Y-84274100D03*
X151376300Y-84274100D03*
X150876300Y-84274100D03*
X150376300Y-84274100D03*
X149876300Y-84274100D03*
D12*
X151376300Y-85674100D03*
D13*
X149663800Y-84984100D03*
X149663800Y-86364100D03*
X149663800Y-85904100D03*
X149663800Y-85444100D03*
X153088800Y-85444100D03*
X153088800Y-84984100D03*
X153088800Y-85904100D03*
X153088800Y-86364100D03*
D14*
X159613600Y-90641600D03*
X159613600Y-92441600D03*
X157378400Y-90641600D03*
X157378400Y-92441600D03*
D15*
X147831300Y-90754100D03*
X146031300Y-90754100D03*
X154417600Y-90830400D03*
X152617600Y-90830400D03*
D14*
X146296300Y-84774100D03*
X146296300Y-86574100D03*
D15*
X150476300Y-78054100D03*
X152276300Y-78054100D03*
X150476300Y-80594100D03*
X152276300Y-80594100D03*
D16*
X155719300Y-74070200D03*
X155069300Y-74070200D03*
X154419300Y-74070200D03*
X153769300Y-74070200D03*
X153119300Y-74070200D03*
D17*
X158597600Y-83389200D03*
X158597600Y-86689200D03*
M02*
