M48
;DRILL file {KiCad 4.0.2-stable} date 6/15/2017 1:24:03 PM
;FORMAT={-:-/ absolute / inch / decimal}
FMAT,2
INCH,TZ
T1C0.016
T2C0.020
T3C0.022
T4C0.039
T5C0.039
T6C0.091
%
G90
G05
M72
T1
X5.802Y-3.496
X5.94Y-3.2483
X6.008Y-3.018
X6.072Y-3.3821
T4
X5.2321Y-3.208
X5.3321Y-3.208
X5.412Y-3.208
X5.512Y-3.208
T5
X4.968Y-3.11
X4.968Y-3.21
X4.968Y-3.31
X4.968Y-3.41
X4.968Y-3.51
X4.968Y-3.61
X4.968Y-3.71
X4.968Y-3.81
X4.968Y-3.91
X4.968Y-4.01
X4.968Y-4.11
X4.968Y-4.21
X6.46Y-3.118
X6.46Y-3.218
X6.46Y-3.318
X6.46Y-3.418
X6.46Y-3.518
X6.46Y-3.618
X6.46Y-3.718
T6
X5.112Y-3.1029
X5.6522Y-3.1029
T2
X5.9417Y-2.7971G85X5.9417Y-2.8226
G05
X6.2173Y-2.7971G85X6.2173Y-2.8226
G05
T3
X5.987Y-2.9161G85X5.9752Y-2.9161
G05
X6.1838Y-2.9161G85X6.172Y-2.9161
G05
T0
M30
