G04 #@! TF.FileFunction,Copper,L2,Bot,Signal*
%FSLAX46Y46*%
G04 Gerber Fmt 4.6, Leading zero omitted, Abs format (unit mm)*
G04 Created by KiCad (PCBNEW 4.0.2-stable) date 6/15/2017 1:23:54 PM*
%MOMM*%
G01*
G04 APERTURE LIST*
%ADD10C,0.100000*%
%ADD11O,1.250000X0.950000*%
%ADD12O,1.000000X1.550000*%
%ADD13C,1.500000*%
%ADD14C,3.000000*%
%ADD15R,2.199640X1.524000*%
%ADD16O,2.199640X1.524000*%
%ADD17C,0.600000*%
%ADD18C,0.250000*%
%ADD19C,0.403000*%
%ADD20C,0.254000*%
G04 APERTURE END LIST*
D10*
D11*
X156919300Y-74070200D03*
X151919300Y-74070200D03*
D12*
X157919300Y-71370200D03*
X150919300Y-71370200D03*
D13*
X132894800Y-81483200D03*
X135434800Y-81483200D03*
X137464800Y-81483200D03*
X140004800Y-81483200D03*
D14*
X129844800Y-78813200D03*
X143564800Y-78813200D03*
D15*
X164084000Y-79197200D03*
D16*
X164084000Y-81737200D03*
X164084000Y-84277200D03*
X164084000Y-86817200D03*
X164084000Y-89357200D03*
X164084000Y-91897200D03*
X164084000Y-94437200D03*
D15*
X126187200Y-78994000D03*
D16*
X126187200Y-81534000D03*
X126187200Y-84074000D03*
X126187200Y-86614000D03*
X126187200Y-89154000D03*
X126187200Y-91694000D03*
X126187200Y-94234000D03*
X126187200Y-96774000D03*
X126187200Y-99314000D03*
X126187200Y-101854000D03*
X126187200Y-104394000D03*
X126187200Y-106934000D03*
D17*
X152603200Y-76657200D03*
X154228800Y-85904100D03*
X147370800Y-88798400D03*
X150876300Y-82507100D03*
D18*
X154228800Y-85904100D02*
X154228800Y-85902800D01*
X147370800Y-83566000D02*
X147370800Y-88798400D01*
X148437600Y-82499200D02*
X147370800Y-83566000D01*
X150868400Y-82499200D02*
X148437600Y-82499200D01*
X150876300Y-82507100D02*
X150868400Y-82499200D01*
D19*
X135434800Y-81483200D02*
X135434800Y-82344800D01*
X128778000Y-81534000D02*
X126187200Y-81534000D01*
X130251200Y-83007200D02*
X128778000Y-81534000D01*
X134772400Y-83007200D02*
X130251200Y-83007200D01*
X135434800Y-82344800D02*
X134772400Y-83007200D01*
X137464800Y-81483200D02*
X137464800Y-82499200D01*
X135890000Y-84074000D02*
X126187200Y-84074000D01*
X137464800Y-82499200D02*
X135890000Y-84074000D01*
D20*
G36*
X161163000Y-93932857D02*
X161086800Y-93917700D01*
X145923000Y-93917700D01*
X145923000Y-88983567D01*
X146435638Y-88983567D01*
X146577683Y-89327343D01*
X146840473Y-89590592D01*
X147184001Y-89733238D01*
X147555967Y-89733562D01*
X147899743Y-89591517D01*
X148162992Y-89328727D01*
X148305638Y-88985199D01*
X148305962Y-88613233D01*
X148163917Y-88269457D01*
X148130800Y-88236282D01*
X148130800Y-83880802D01*
X148752402Y-83259200D01*
X150305951Y-83259200D01*
X150345973Y-83299292D01*
X150689501Y-83441938D01*
X151061467Y-83442262D01*
X151405243Y-83300217D01*
X151668492Y-83037427D01*
X151811138Y-82693899D01*
X151811462Y-82321933D01*
X151669417Y-81978157D01*
X151406627Y-81714908D01*
X151063099Y-81572262D01*
X150691133Y-81571938D01*
X150347357Y-81713983D01*
X150322096Y-81739200D01*
X148437600Y-81739200D01*
X148146761Y-81797052D01*
X147900199Y-81961799D01*
X146833399Y-83028599D01*
X146668652Y-83275161D01*
X146610800Y-83566000D01*
X146610800Y-88235937D01*
X146578608Y-88268073D01*
X146435962Y-88611601D01*
X146435638Y-88983567D01*
X145923000Y-88983567D01*
X145923000Y-75768200D01*
X161163000Y-75768200D01*
X161163000Y-93932857D01*
X161163000Y-93932857D01*
G37*
X161163000Y-93932857D02*
X161086800Y-93917700D01*
X145923000Y-93917700D01*
X145923000Y-88983567D01*
X146435638Y-88983567D01*
X146577683Y-89327343D01*
X146840473Y-89590592D01*
X147184001Y-89733238D01*
X147555967Y-89733562D01*
X147899743Y-89591517D01*
X148162992Y-89328727D01*
X148305638Y-88985199D01*
X148305962Y-88613233D01*
X148163917Y-88269457D01*
X148130800Y-88236282D01*
X148130800Y-83880802D01*
X148752402Y-83259200D01*
X150305951Y-83259200D01*
X150345973Y-83299292D01*
X150689501Y-83441938D01*
X151061467Y-83442262D01*
X151405243Y-83300217D01*
X151668492Y-83037427D01*
X151811138Y-82693899D01*
X151811462Y-82321933D01*
X151669417Y-81978157D01*
X151406627Y-81714908D01*
X151063099Y-81572262D01*
X150691133Y-81571938D01*
X150347357Y-81713983D01*
X150322096Y-81739200D01*
X148437600Y-81739200D01*
X148146761Y-81797052D01*
X147900199Y-81961799D01*
X146833399Y-83028599D01*
X146668652Y-83275161D01*
X146610800Y-83566000D01*
X146610800Y-88235937D01*
X146578608Y-88268073D01*
X146435962Y-88611601D01*
X146435638Y-88983567D01*
X145923000Y-88983567D01*
X145923000Y-75768200D01*
X161163000Y-75768200D01*
X161163000Y-93932857D01*
M02*
